<?xml version="1.0" encoding="utf-8"?>
<!-- Generator: Adobe Illustrator 26.5.0, SVG Export Plug-In . SVG Version: 6.00 Build 0)  -->
<svg version="1.1" xmlns="http://www.w3.org/2000/svg" xmlns:xlink="http://www.w3.org/1999/xlink" x="0px" y="0px"
	 viewBox="0 0 64 64" style="enable-background:new 0 0 64 64;" xml:space="preserve">
<style type="text/css">
	.st0{fill:#446E9B;}
	.st1{fill:none;stroke:#FFFFFF;stroke-width:2;}
	.st2{display:none;fill:none;stroke:#C18D17;stroke-width:2;}
	.st3{display:none;fill:none;stroke:#C18D17;stroke-width:2;stroke-linecap:round;}
	.st4{fill:#FFCC99;}
	.st5{fill:#263740;}
	.st6{fill:#1E2C33;}
	.st7{fill:#F5F5F5;}
	.st8{fill:#E6E6E6;}
	.st9{fill:#CC6152;}
	.st10{fill:#74B340;}
	.st11{fill:#E78244;}
	.st12{fill:#FFD464;}
	.st13{fill:#E16B5A;}
</style>
<g id="Layer_1">
	<g id="Layer_1_00000055703419615195049300000009333606875550735801_">
		<g id="Layer_1_00000156563780679355132570000001730101449058460599_">
			<path class="st0" d="M6,0h52c3.3,0,6,2.7,6,6v52c0,3.3-2.7,6-6,6H6c-3.3,0-6-2.7-6-6V6C0,2.7,2.7,0,6,0z"/>
			<path class="st1" d="M0,0"/>
			<path class="st1" d="M0,0"/>
			<path class="st2" d="M30,34l10-10"/>
			<path class="st3" d="M34,23h7v7"/>
		</g>
	</g>
</g>
<g id="Layer_2">
	<circle class="st4" cx="30.5" cy="31.3" r="20.5"/>
	<path class="st5" d="M16.1,38.6c-1.7,0-2.6-0.9-2.6-2.6c0-9.4,7.6-17,17-17s17,7.6,17,17c0,1.7-0.9,2.6-2.6,2.6H16.1z"/>
	<path class="st6" d="M30.5,19.1c-0.2,0-0.3,0-0.5,0c9.1,0.3,16.5,7.8,16.5,16.9c0,1.7-0.9,2.6-2.6,2.6h1c1.7,0,2.6-0.9,2.6-2.6
		C47.4,26.7,39.8,19.1,30.5,19.1z"/>
	<path class="st7" d="M16.1,36.1c0-8,6.4-14.4,14.4-14.4s14.4,6.4,14.4,14.4H16.1z"/>
	<path class="st8" d="M31.1,21.7c-0.2,0-0.4,0-0.6,0c-8,0-14.4,6.4-14.4,14.4h1.3C17.3,28.3,23.4,22,31.1,21.7z"/>
	<path class="st9" d="M23.5,26.8c-1.8,1.3-3.2,3.1-4.1,5.3c-0.2,0.7,0.1,1.4,0.8,1.6c0.7,0.2,1.4-0.1,1.6-0.8
		c0.7-1.8,1.8-3.3,3.3-4.3L23.5,26.8z"/>
	<path class="st10" d="M39.1,33c0.2,0.5,0.7,0.8,1.2,0.8c0.1,0,0.3,0,0.4-0.1c0.7-0.2,1-1,0.8-1.6c-0.7-1.9-1.9-3.6-3.4-4.8
		l-1.8,1.8C37.6,30.1,38.5,31.4,39.1,33z"/>
	<path class="st11" d="M23.5,26.8l1.6,1.9c1.5-1,3.3-1.6,5.3-1.6v-2.6C27.9,24.5,25.4,25.4,23.5,26.8z"/>
	<path class="st12" d="M36.4,29.1l1.8-1.8c-2.1-1.7-4.7-2.7-7.6-2.7v2.6C32.7,27.1,34.8,27.8,36.4,29.1z"/>
	<g>
		<path class="st13" d="M31.5,36.1c0-0.2-0.1-0.4-0.2-0.6L23.3,26c-0.1-0.1-0.2-0.1-0.3,0c-0.1,0.1-0.2,0.2-0.1,0.4l6.4,9.8H31.5z"
			/>
		<path class="st13" d="M28.2,36.1c0-1.2,1-2.2,2.2-2.2c1.2,0,2.2,1,2.2,2.2H28.2z"/>
	</g>
</g>
</svg>
