<?xml version="1.0" encoding="utf-8"?>
<!-- Generator: Adobe Illustrator 26.5.0, SVG Export Plug-In . SVG Version: 6.00 Build 0)  -->
<svg version="1.1" xmlns="http://www.w3.org/2000/svg" xmlns:xlink="http://www.w3.org/1999/xlink" x="0px" y="0px"
	 viewBox="0 0 64 64" style="enable-background:new 0 0 64 64;" xml:space="preserve">
<style type="text/css">
	.st0{fill:#446E9B;}
	.st1{fill:none;stroke:#FFFFFF;stroke-width:2;}
	.st2{display:none;fill:none;stroke:#C18D17;stroke-width:2;}
	.st3{display:none;fill:none;stroke:#C18D17;stroke-width:2;stroke-linecap:round;}
	.st4{fill:#BDC3C7;}
	.st5{fill:#FFCC99;}
</style>
<g id="Layer_1">
	<g id="Layer_1_00000078745137179089547580000009407898786518224557_">
		<g id="Layer_1_00000055703419615195049300000009333606875550735801_">
			<g id="Layer_1_00000156563780679355132570000001730101449058460599_">
				<path class="st0" d="M6,0h52c3.3,0,6,2.7,6,6v52c0,3.3-2.7,6-6,6H6c-3.3,0-6-2.7-6-6V6C0,2.7,2.7,0,6,0z"/>
				<path class="st1" d="M0,0"/>
				<path class="st1" d="M0,0"/>
				<path class="st2" d="M30,34l10-10"/>
				<path class="st3" d="M34,23h7v7"/>
			</g>
		</g>
	</g>
</g>
<g id="Layer_2">
	<g>
		<g id="XMLID_32_">
			<g>
				<path class="st4" d="M51.3,50.6c0.6,0,1.1,0.5,1.1,1.1c0,0.6-0.5,1.1-1.1,1.1H12.7c-0.6,0-1.1-0.5-1.1-1.1
					c0-0.6,0.5-1.1,1.1-1.1H51.3z"/>
				<path class="st5" d="M38.6,33.7V37L32,41.4L25.4,37v-3.3l2.9,1.9c0.5,0.3,1.2,0.4,1.7,0.1c0.5-0.3,0.9-0.9,0.9-1.5V13.1
					c0-0.6,0.5-1.1,1.1-1.1c0.6,0,1.1,0.5,1.1,1.1v21.2c0,0.6,0.3,1.2,0.9,1.5c0.5,0.3,1.2,0.3,1.7-0.1L38.6,33.7z"/>
				<path d="M51.3,47.3c2.4,0,4.4,2,4.4,4.4c0,2.4-2,4.4-4.4,4.4H12.7c-2.4,0-4.4-2-4.4-4.4c0-2.4,2-4.4,4.4-4.4H51.3z M52.4,51.7
					c0-0.6-0.5-1.1-1.1-1.1H12.7c-0.6,0-1.1,0.5-1.1,1.1c0,0.6,0.5,1.1,1.1,1.1h38.7C51.9,52.8,52.4,52.3,52.4,51.7z"/>
				<path d="M42,30.5v7.4c0,0.6-0.3,1.1-0.7,1.4l-8.3,5.5c-0.3,0.2-0.6,0.3-0.9,0.3c-0.3,0-0.6-0.1-0.9-0.3l-8.3-5.5
					C22.3,39,22,38.5,22,37.9v-7.4c0-0.6,0.3-1.2,0.9-1.5c0.5-0.3,1.2-0.3,1.7,0.1l2.9,1.9v-18c0-2.4,2-4.4,4.4-4.4s4.4,2,4.4,4.4
					v18l2.9-1.9c0.5-0.3,1.2-0.4,1.7-0.1C41.6,29.4,42,29.9,42,30.5z M38.6,37v-3.3l-2.9,1.9C35.2,36,34.5,36,34,35.7
					c-0.5-0.3-0.9-0.9-0.9-1.5V13.1c0-0.6-0.5-1.1-1.1-1.1s-1.1,0.5-1.1,1.1v21.2c0,0.6-0.3,1.2-0.9,1.5c-0.5,0.3-1.2,0.3-1.7-0.1
					l-2.9-1.9V37l6.6,4.4L38.6,37z"/>
			</g>
		</g>
	</g>
</g>
</svg>
