<?xml version="1.0" encoding="utf-8"?>
<!-- Generator: Adobe Illustrator 26.5.0, SVG Export Plug-In . SVG Version: 6.00 Build 0)  -->
<svg version="1.1" xmlns="http://www.w3.org/2000/svg" xmlns:xlink="http://www.w3.org/1999/xlink" x="0px" y="0px"
	 viewBox="0 0 64 64" style="enable-background:new 0 0 64 64;" xml:space="preserve">
<style type="text/css">
	.st0{fill:#446E9B;}
	.st1{fill:none;stroke:#FFFFFF;stroke-width:2;}
	.st2{display:none;fill:none;stroke:#C18D17;stroke-width:2;}
	.st3{display:none;fill:none;stroke:#C18D17;stroke-width:2;stroke-linecap:round;}
	.st4{fill-rule:evenodd;clip-rule:evenodd;fill:#FFCC99;}
</style>
<g id="Layer_1">
	<g id="Layer_1_00000055703419615195049300000009333606875550735801_">
		<g id="Layer_1_00000156563780679355132570000001730101449058460599_">
			<path class="st0" d="M6,0h52c3.3,0,6,2.7,6,6v52c0,3.3-2.7,6-6,6H6c-3.3,0-6-2.7-6-6V6C0,2.7,2.7,0,6,0z"/>
			<path class="st1" d="M0,0"/>
			<path class="st1" d="M0,0"/>
			<path class="st2" d="M30,34l10-10"/>
			<path class="st3" d="M34,23h7v7"/>
		</g>
	</g>
</g>
<g id="Layer_2">
	<path class="st4" d="M51.1,13.8c0.3,0.2,0.4,0.6,0.4,0.9v33.6c0,0.6-0.4,1.1-1,1.2l-12,2.4c-0.2,0-0.3,0-0.5,0l-11.8-2.4l-11.8,2.4
		c-0.6,0.1-1.3-0.3-1.4-0.9c0-0.1,0-0.2,0-0.2V17.1c0-0.6,0.4-1.1,1-1.2l12-2.4c0.2,0,0.3,0,0.5,0l11.8,2.4l11.8-2.4
		C50.4,13.5,50.8,13.6,51.1,13.8z M37.1,18.1l-9.6-1.9v31.2l9.6,1.9V18.1z M39.5,49.2l9.6-1.9V16.2l-9.6,1.9V49.2z M25.1,47.3V16.2
		l-9.6,1.9v31.2L25.1,47.3z"/>
</g>
</svg>
