<?xml version="1.0" encoding="utf-8"?>
<!-- Generator: Adobe Illustrator 26.4.1, SVG Export Plug-In . SVG Version: 6.00 Build 0)  -->
<svg version="1.1" id="Layer_1" xmlns="http://www.w3.org/2000/svg" xmlns:xlink="http://www.w3.org/1999/xlink" x="0px" y="0px"
	 viewBox="0 0 1133.5 308.4" style="enable-background:new 0 0 1133.5 308.4;" xml:space="preserve">
<style type="text/css">
	.st0{fill:#B4C8D1;}
	.st1{fill:#EDBBC7;}
	.st2{fill:#FFD678;}
	.st3{fill:#D8E55C;}
	.st4{fill:#414141;stroke:#000000;stroke-width:0.286;stroke-miterlimit:10;}
	.st5{fill:#414141;stroke:#000000;stroke-miterlimit:10;}
	.st6{fill:#7C7C7C;stroke:#000000;stroke-miterlimit:10;}
</style>
<g>
	<path class="st0" d="M225,117.2l9.7,1.1c0.7,0.1,1,0.4,0.9,0.7l-33.1,58.3c-0.9,1.3-3.7,2-6.6,1.7l-1.1-0.1c-3.1-0.3-5-1.7-4.2-3.1
		l33.1-58.1C223.7,117.3,224.4,117.1,225,117.2z"/>
	<path class="st1" d="M277.6,129.9l8.2-2.5l-23.7,40.3c-0.9,1.6-3.4,2.7-5.4,2.5l-4.9-0.6c-2.5-0.3-3.4-2-2.4-3.9l23.4-39.8
		L277.6,129.9z"/>
	<path class="st0" d="M372.7,143c-0.1,0.3-0.7,0.5-1.3,0.4l-10.8-0.6c-0.7,0-1.2-0.3-1.1-0.6l5.7-20.2c0.3-1.3,3.1-2.3,6.1-2.1
		l2.1,0.1c3.1,0.2,5.4,1.5,5,2.9L372.7,143L372.7,143z"/>
	<path class="st1" d="M431.6,141.4l-6.2-3.2l-7,2.9l4.7-38.7c0.2-1.5,2.1-2.7,4.2-2.6l5,0.1c2.5,0,4.3,1.5,4.1,3.3L431.6,141.4
		L431.6,141.4z"/>
	<path class="st2" d="M471.7,148.2l-10.2-1.7c-0.6-0.1-0.9-0.4-0.7-0.7l47.8-55.5c1.1-1.2,4.2-1.8,7-1.4l1.9,0.3
		c3,0.5,4.4,2,3.3,3.3l-47.7,55.4C473,148.2,472.3,148.4,471.7,148.2z M708.2,188l9.4,1.4c0.7,0.1,1,0.4,0.8,0.7l-42.9,57
		c-1,1.3-3.9,1.9-6.9,1.5l-1.2-0.2c-3.1-0.5-4.7-1.9-3.7-3.2l42.8-56.9C706.8,188,707.5,187.9,708.2,188z"/>
	<path class="st3" d="M749.5,196.4l9-3.1l4,4.5l-23.7,40.3c-0.9,1.6-3.4,2.7-5.4,2.5l-4.9-0.6c-2.5-0.3-3.4-2-2.4-3.9L749.5,196.4
		L749.5,196.4z"/>
	<path class="st2" d="M833,226.6c-0.3,0.3-1,0.4-1.7,0.4l-10.3-1.5c-0.7-0.1-1-0.4-0.8-0.7l14.5-19.3c1-1.3,3.9-1.9,6.9-1.5l2.1,0.3
		c3.1,0.5,4.7,1.9,3.7,3.2L833,226.6L833,226.6z"/>
	<path class="st1" d="M884.9,218.5l-4.4-3.9l-8.5,2l28.1-36.7c1.1-1.4,3.6-2.4,5.7-2.1l4.8,0.7c2.4,0.4,3.3,2,2,3.7L884.9,218.5
		L884.9,218.5z"/>
	<path class="st0" d="M956.9,219.7c-0.3,0.3-1,0.4-1.7,0.3l-10-2c-0.7-0.1-1-0.5-0.7-0.7l54.2-54.4c1.2-1.2,4.5-1.7,7.2-1.2l2,0.4
		c3,0.6,4.2,2.1,3,3.4L956.9,219.7L956.9,219.7z"/>
	<path class="st4" d="M60,36.9c39.9,41.7-2.1,126.1,91.8,139.6l35.6,5.3C84.9,167,150.4,68.5,89.9,32.9"/>
	<path class="st5" d="M540.2,91.7l-43.5-6.4c117.1,16.7,22.6,144.2,139.7,160.9l35.6,5.3C555,234.8,657.3,108.5,540.2,91.7
		L540.2,91.7z"/>
	<path class="st4" d="M1104.9,287.1c-20.1-43.9,8.7-112.2-75.3-124.2l-43.5-6.4c88.9,12.7,55.9,89.2,86.1,132.7"/>
	<path class="st6" d="M659.4,250.1l-31.3-4.8c145.8,22,229-109,374.8-87l34.5,6.1C891.6,142.4,805.2,272.1,659.4,250.1L659.4,250.1z
		 M142.2,174.8c145.8,22,229-109,374.8-87l34.7,6.1c-145.8-22-232.2,107.7-378,85.7L142.2,174.8z"/>
	<path class="st0" d="M27.7,83.1c-0.5,0.2-1.3,0.3-1.8,0.1l-8.2-3.1c-0.5-0.2-0.6-0.6-0.2-0.8l65-33.7c1.8-1,5.3-1.2,7.5-0.3
		l1.7,0.6c2.5,0.9,2.7,2.5,0.6,3.6L27.7,83.1L27.7,83.1z"/>
	<path class="st3" d="M61.9,99.5L61.5,95L96,76.6c1.3-0.7,3.7-0.8,5.3-0.2l3.9,1.4c1.9,0.7,2.2,2,0.6,2.8L71.9,98.7L61.9,99.5z"/>
	<path class="st2" d="M146.4,99.3c0.3-0.3,1.1-0.4,1.7-0.3l9.7,2.2c0.6,0.2,0.9,0.5,0.6,0.8l-41.3,34.6c-1.4,1.1-4.6,1.6-7.3,1
		l-1.9-0.5c-2.9-0.6-3.9-2.2-2.5-3.4L146.4,99.3L146.4,99.3z"/>
	<path class="st3" d="M180.8,110.6l9.1-3l3.4,4.9l-43.6,54c-1.8,2.1-4.8,3.6-6.7,3.3l-4.7-0.7c-2.4-0.4-2.6-2.7-0.6-5.2L180.8,110.6
		L180.8,110.6z M513.8,161.8l-9.7,2.2l-2-5.1l57-44.5c2.2-1.7,5.5-2.8,7.4-2.3l4.4,1.1c2.2,0.6,1.9,2.7-0.8,4.7L513.8,161.8
		L513.8,161.8z"/>
	<path class="st2" d="M622.3,172.6l4.8,1l5.1,1c0.7,0.1,1,0.5,0.7,0.7l-35.7,35.8c-1.2,1.2-4.5,1.7-7.2,1.2l-2-0.4
		c-3-0.6-4.2-2.1-3-3.4l35.6-35.6C620.9,172.6,621.6,172.5,622.3,172.6z"/>
	<path class="st1" d="M660.9,181.6l2.9,5.3l9.7-3.3l-43.6,54c-1.8,2.1-4.8,3.6-6.7,3.3l-4.7-0.7c-2.4-0.4-2.6-2.7-0.6-5.2
		L660.9,181.6L660.9,181.6z"/>
	<path class="st3" d="M1002.5,234.2l-9.9,2.2l-1.8-5.1l57-44.5c2.2-1.7,5.5-2.8,7.4-2.3l4.4,1.1c2.2,0.6,1.9,2.7-0.8,4.7
		L1002.5,234.2L1002.5,234.2z"/>
	<path class="st0" d="M578.8,176.8c-0.2,0.3-0.9,0.5-1.5,0.4l-10.6-1.2c-0.7-0.1-1-0.4-0.9-0.7l15.6-27.4c0.9-1.3,3.7-2,6.6-1.7
		l2.1,0.2c3.1,0.3,5,1.7,4.2,3.1L578.8,176.8L578.8,176.8z"/>
	<path class="st2" d="M1017.6,257.1c-0.4,0.3-1.3,0.3-1.8,0.1l-8.2-3.1c-0.5-0.2-0.6-0.6-0.2-0.8L1064,224c1.8-1,5.3-1.2,7.5-0.3
		l1.7,0.6c2.5,0.9,2.7,2.5,0.6,3.6L1017.6,257.1L1017.6,257.1z"/>
	<path class="st0" d="M1033.6,276.4l-0.1-3.6l-7.2-1.3l44.9-13.2c1.7-0.5,4.1-0.3,5.3,0.5l2.8,1.8c1.3,0.9,0.7,2.2-1.3,2.8
		L1033.6,276.4L1033.6,276.4z"/>
</g>
</svg>
