<?xml version="1.0" encoding="utf-8"?>
<!-- Generator: Adobe Illustrator 26.5.0, SVG Export Plug-In . SVG Version: 6.00 Build 0)  -->
<svg version="1.1" id="Layer_1" xmlns="http://www.w3.org/2000/svg" xmlns:xlink="http://www.w3.org/1999/xlink" x="0px" y="0px"
	 viewBox="0 0 64 64" style="enable-background:new 0 0 64 64;" xml:space="preserve">
<style type="text/css">
	.st0{fill:#446E9B;}
	.st1{fill:none;stroke:#FFFFFF;stroke-width:2;}
	.st2{display:none;fill:none;stroke:#C18D17;stroke-width:2;}
	.st3{display:none;fill:none;stroke:#C18D17;stroke-width:2;stroke-linecap:round;}
	.st4{fill:#FFCC99;}
</style>
<g id="Layer_1_00000155135033541802643750000004263893842111202217_">
	<g id="Layer_1_00000156563780679355132570000001730101449058460599_">
		<path class="st0" d="M6,0h52c3.3,0,6,2.7,6,6v52c0,3.3-2.7,6-6,6H6c-3.3,0-6-2.7-6-6V6C0,2.7,2.7,0,6,0z"/>
		<path class="st1" d="M0,0"/>
		<path class="st1" d="M0,0"/>
		<path class="st2" d="M30,34l10-10"/>
		<path class="st3" d="M34,23h7v7"/>
	</g>
</g>
<g id="Layer_4">
	<path class="st4" d="M32.6,15.9c-0.3-0.2-0.8-0.2-1.1,0l-18,9.6c-0.6,0.3-0.8,1-0.5,1.6c0.1,0.2,0.3,0.4,0.5,0.5l7,3.8l-7,3.8
		c-0.6,0.3-0.8,1-0.5,1.6c0.1,0.2,0.3,0.4,0.5,0.5l18,9.6c0.3,0.2,0.8,0.2,1.1,0l18-9.6c0.6-0.3,0.8-1,0.5-1.6
		c-0.1-0.2-0.3-0.4-0.5-0.5l-7-3.8l7-3.8c0.6-0.3,0.8-1,0.5-1.6c-0.1-0.2-0.3-0.4-0.5-0.5L32.6,15.9z M41,32.7l6.5,3.4L32,44.4
		l-15.4-8.2l6.5-3.4l8.4,4.5c0.3,0.2,0.8,0.2,1.1,0L41,32.7z M32,34.8l-15.4-8.2L32,18.3l15.4,8.2L32,34.8z"/>
</g>
</svg>
