<?xml version="1.0" encoding="utf-8"?>
<!-- Generator: Adobe Illustrator 26.5.0, SVG Export Plug-In . SVG Version: 6.00 Build 0)  -->
<svg version="1.1" xmlns="http://www.w3.org/2000/svg" xmlns:xlink="http://www.w3.org/1999/xlink" x="0px" y="0px"
	 viewBox="0 0 64 64" style="enable-background:new 0 0 64 64;" xml:space="preserve">
<style type="text/css">
	.st0{fill:#446E9B;}
	.st1{fill:none;stroke:#FFFFFF;stroke-width:2;}
	.st2{display:none;fill:none;stroke:#C18D17;stroke-width:2;}
	.st3{display:none;fill:none;stroke:#C18D17;stroke-width:2;stroke-linecap:round;}
	.st4{display:none;}
	.st5{display:inline;fill:#CC6600;}
	.st6{display:inline;fill:#336699;}
	.st7{font-family:'MyriadPro-It';}
	.st8{font-size:9.6px;}
	.st9{fill:#FFCC99;}
	.st10{fill:#CC6600;}
</style>
<g id="Layer_1">
	<g id="Layer_1_00000143579658109048270960000017959578362029159043_">
		<g id="Layer_1_00000163761614302253828450000006078266113639887540_">
			<g id="Layer_1_00000156563780679355132570000001730101449058460599_">
				<path class="st0" d="M6,0h52c3.3,0,6,2.7,6,6v52c0,3.3-2.7,6-6,6H6c-3.3,0-6-2.7-6-6V6C0,2.7,2.7,0,6,0z"/>
				<path class="st1" d="M0,0"/>
				<path class="st1" d="M0,0"/>
				<path class="st2" d="M30,34l10-10"/>
				<path class="st3" d="M34,23h7v7"/>
			</g>
		</g>
	</g>
	<g id="Layer_2_00000158717376945863932690000003236556769866887832_" class="st4">
		<path class="st5" d="M31.7,12.8c10.6,0,19.2,7,19.2,15.6c0,3.4-1.4,6.6-4.1,9.6c-4,4.6-13,10.3-15.1,11.1c-2,0.8-1.8-0.5-1.7-1V48
			l0.2-1.7c0.1-0.5,0.2-1.3-0.1-1.8c-0.2-0.6-1-0.8-1.7-1c-9.1-1.1-16-7.6-16-15.3C12.5,19.7,21.1,12.8,31.7,12.8z"/>
	</g>
	<g id="Layer_3" class="st4">
		<text transform="matrix(1 0 0 1 13.8638 32.0641)" class="st6 st7 st8">OneStop</text>
	</g>
</g>
<g id="Layer_2">
	<polygon class="st9" points="31.4,28.1 31.4,14.7 50.3,11.8 50.3,28.1 	"/>
	<g>
		<path class="st10" d="M50.3,29.4H31.4c-0.7,0-1.3-0.6-1.3-1.3V14.7c0-0.6,0.5-1.2,1.1-1.2l18.9-2.8c0.4-0.1,0.7,0.1,1,0.3
			c0.3,0.2,0.4,0.6,0.4,1v16.3C51.5,28.8,51,29.4,50.3,29.4z M32.6,26.9H49V13.3l-16.4,2.5V26.9z"/>
		<path class="st10" d="M25.7,29.6H11.8c-0.7,0-1.3-0.6-1.3-1.3V17.5c0-0.6,0.5-1.2,1.1-1.2l13.8-2c0.4-0.1,0.7,0.1,1,0.3
			c0.3,0.2,0.4,0.6,0.4,1v12.9C26.9,29,26.4,29.6,25.7,29.6z M13.1,27.1h11.3V16.9l-11.3,1.7V27.1z"/>
		<path class="st10" d="M50.3,51.1c-0.1,0-0.1,0-0.2,0l-18.9-2.8c-0.6-0.1-1.1-0.6-1.1-1.2V34c0-0.7,0.6-1.3,1.3-1.3h6.4
			c0.7,0,1.3,0.6,1.3,1.3s-0.6,1.3-1.3,1.3h-5.1v10.6L49,48.4V35.3h-4c-0.7,0-1.3-0.6-1.3-1.3c0-0.7,0.6-1.3,1.3-1.3h5.3
			c0.7,0,1.3,0.6,1.3,1.3v15.8c0,0.4-0.2,0.7-0.4,1C50.9,51,50.6,51.1,50.3,51.1z"/>
	</g>
	<polygon class="st9" points="11.8,44.2 11.8,34 25.7,34 25.7,46.2 	"/>
	<path class="st10" d="M25.7,47.5c-0.1,0-0.1,0-0.2,0l-13.8-2c-0.6-0.1-1.1-0.6-1.1-1.2V34c0-0.7,0.6-1.3,1.3-1.3h13.8
		c0.7,0,1.3,0.6,1.3,1.3v12.2c0,0.4-0.2,0.7-0.4,1C26.3,47.4,26,47.5,25.7,47.5z M13.1,43.1l11.3,1.7v-9.5H13.1V43.1z"/>
</g>
</svg>
